<svg width="141" height="26" viewBox="0 0 141 26" fill="none" xmlns="http://www.w3.org/2000/svg">
<path d="M32.2812 24.5605V9.28272L20.8144 24.0749C20.2846 24.7286 19.5087 25.0648 18.5059 25.0648C17.503 25.0648 16.7272 24.7286 16.1974 24.0749L4.74946 9.28272V24.5605H0V2.96988C0 2.24148 0.264911 1.71852 0.813653 1.36366C1.3624 1.02747 2.02467 0.859375 2.83832 0.859375C3.46276 0.859375 3.95473 0.952761 4.31425 1.12085C4.67377 1.28895 5.01437 1.5691 5.31713 1.96132L18.5816 19.331L31.9406 1.96132C32.2434 1.5691 32.5461 1.28895 32.8867 1.12085C33.2273 0.952761 33.6814 0.859375 34.287 0.859375C35.0817 0.859375 35.7629 1.02747 36.3116 1.36366C36.8604 1.69984 37.1253 2.24148 37.1253 2.96988V24.5605H32.2812Z" fill="#334D6E"/>
<path d="M49.8788 24.5607C48.1569 24.5607 46.7188 24.4113 45.5645 24.1311C44.4103 23.851 43.502 23.4027 42.8019 22.7677C42.1207 22.1514 41.6287 21.3296 41.3449 20.321C41.061 19.3125 40.9097 18.0798 40.9097 16.6043V14.1202C40.9097 12.6448 41.061 11.3934 41.3449 10.3848C41.6287 9.35759 42.1207 8.5358 42.8019 7.91946C43.4831 7.30312 44.4103 6.83619 45.5645 6.55604C46.7188 6.27588 48.1569 6.12646 49.8788 6.12646H56.1231C57.8639 6.12646 59.3209 6.27588 60.4563 6.55604C61.6105 6.83619 62.5188 7.30312 63.2189 7.93814C63.9001 8.57316 64.3921 9.39495 64.6759 10.4222C64.9597 11.4494 65.1111 12.6821 65.1111 14.1576V16.6043C65.1111 18.0798 64.9597 19.3125 64.6759 20.321C64.3921 21.3296 63.9001 22.1514 63.2189 22.7677C62.5377 23.3841 61.6105 23.851 60.4563 24.1311C59.302 24.4113 57.8639 24.5607 56.1231 24.5607H49.8788ZM59.9832 14.2883C59.9832 13.5226 59.9264 12.8876 59.794 12.3833C59.6615 11.879 59.4345 11.4868 59.1128 11.2066C58.7722 10.9265 58.3181 10.7397 57.7125 10.6276C57.107 10.5342 56.3502 10.4782 55.4419 10.4782H50.5789C49.6517 10.4782 48.9137 10.5342 48.3272 10.6276C47.7406 10.721 47.2864 10.9265 46.9458 11.2066C46.6052 11.4868 46.3782 11.879 46.2646 12.3833C46.1322 12.8876 46.0754 13.5226 46.0754 14.2883V16.4735C46.0754 17.2393 46.1322 17.8743 46.2646 18.3599C46.3971 18.8455 46.6242 19.2378 46.9458 19.5179C47.2864 19.7981 47.7406 20.0035 48.3272 20.1156C48.9137 20.2276 49.6706 20.2837 50.5789 20.2837H55.4419C56.3691 20.2837 57.126 20.2276 57.7125 20.1156C58.3181 20.0035 58.7722 19.7981 59.1128 19.5179C59.4534 19.2378 59.6805 18.8455 59.794 18.3599C59.9264 17.8743 59.9832 17.2393 59.9832 16.4735V14.2883Z" fill="#334D6E"/>
<path d="M87.9502 24.5607V14.2883C87.9502 13.5226 87.8935 12.8876 87.761 12.402C87.6286 11.9163 87.4204 11.5241 87.0987 11.244C86.796 10.9638 86.3608 10.7584 85.831 10.6463C85.2822 10.5342 84.601 10.4782 83.7874 10.4782H78.2053C77.3917 10.4782 76.7294 10.5342 76.1807 10.6463C75.6319 10.7584 75.2156 10.9638 74.8939 11.244C74.5723 11.5241 74.3452 11.9163 74.2127 12.402C74.0803 12.8876 74.0235 13.5226 74.0235 14.2883V24.5607H68.8956V14.1202C68.8956 12.6448 69.047 11.3934 69.3308 10.3848C69.6147 9.35759 70.1066 8.5358 70.7878 7.91946C71.469 7.30312 72.3962 6.83619 73.5505 6.55604C74.7047 6.27588 76.1428 6.12646 77.8647 6.12646H84.109C85.8499 6.12646 87.3069 6.27588 88.4422 6.55604C89.5965 6.83619 90.5047 7.28444 91.2048 7.91946C91.886 8.5358 92.378 9.35759 92.6618 10.3848C92.9457 11.4121 93.0971 12.6448 93.0971 14.1202V24.5607H87.9502Z" fill="#334D6E"/>
<path d="M97.0518 24.5605V0.187012H102.293V24.5792H97.0518V24.5605Z" fill="#334D6E"/>
<path d="M108.102 5.08016C107.459 5.08016 107.005 4.94942 106.74 4.70661C106.475 4.46381 106.343 4.05292 106.343 3.51128V1.53152C106.343 0.989884 106.475 0.597666 106.74 0.354864C107.005 0.112063 107.459 0 108.102 0H109.786C110.449 0 110.922 0.112063 111.187 0.354864C111.452 0.597666 111.584 0.989884 111.584 1.53152V3.51128C111.584 4.05292 111.452 4.44514 111.187 4.70661C110.922 4.94942 110.449 5.08016 109.786 5.08016H108.102ZM106.361 24.5603V6.61167H111.603V24.5603H106.361Z" fill="#334D6E"/>
<path d="M134.045 5.86475L140.667 5.93945L131.339 14.9605L140.781 24.3737H134.366L128.065 17.706L121.651 24.3737H115.387" fill="#31CE93"/>
<path d="M123.694 3.1753C123.694 3.00721 123.637 2.83912 123.524 2.70838C123.41 2.57764 123.24 2.50293 123.07 2.50293C123.051 2.50293 123.051 2.50293 123.032 2.50293C122.881 2.50293 122.71 2.55896 122.597 2.67102C122.464 2.78309 122.389 2.95118 122.389 3.11927C122.37 3.47414 122.653 3.77297 122.994 3.79165C123.373 3.79165 123.675 3.53017 123.694 3.1753Z" fill="#31CE93"/>
<path d="M118.207 2.98829C118.207 2.8202 118.15 2.6521 118.036 2.52137C117.923 2.39063 117.753 2.31592 117.582 2.31592C117.563 2.31592 117.563 2.31592 117.544 2.31592C117.393 2.31592 117.223 2.37195 117.109 2.48401C116.977 2.59607 116.901 2.76417 116.901 2.93226C116.882 3.28712 117.166 3.58596 117.507 3.60463C117.885 3.60463 118.188 3.34315 118.207 2.98829Z" fill="#31CE93"/>
<path d="M118.207 8.4048C118.207 8.2367 118.15 8.06861 118.036 7.93787C117.923 7.80713 117.753 7.73242 117.582 7.73242C117.563 7.73242 117.563 7.73242 117.544 7.73242C117.393 7.73242 117.223 7.78845 117.109 7.90052C116.977 8.01258 116.901 8.18067 116.901 8.34877C116.882 8.70363 117.166 9.00246 117.507 9.02114C117.885 9.02114 118.188 8.75966 118.207 8.4048Z" fill="#31CE93"/>
<path d="M124.432 3.94112C124.565 3.73567 124.64 3.49287 124.64 3.23139C124.659 2.8205 124.527 2.4096 124.243 2.09209C123.959 1.77458 123.562 1.58781 123.145 1.56913C122.71 1.55046 122.313 1.6812 121.991 1.96135C121.67 2.24151 121.48 2.63373 121.461 3.04462C121.424 3.90376 122.086 4.65085 122.975 4.70688C123.013 4.70688 123.032 4.70688 123.07 4.70688C123.297 4.70688 123.543 4.65085 123.751 4.55746L128.406 9.4882L129.068 8.8345L124.432 3.94112ZM123.013 3.77303C122.653 3.75435 122.389 3.45551 122.407 3.10065C122.407 2.93256 122.483 2.76447 122.616 2.6524C122.729 2.54034 122.881 2.48431 123.051 2.48431C123.07 2.48431 123.07 2.48431 123.089 2.48431C123.259 2.48431 123.429 2.55902 123.543 2.68976C123.656 2.8205 123.713 2.98859 123.713 3.15668C123.675 3.53022 123.373 3.7917 123.013 3.77303Z" fill="#31CE93"/>
<path d="M118.926 9.17061C119.058 8.94649 119.134 8.70369 119.134 8.46088C119.153 8.04999 119.02 7.63909 118.737 7.32158C118.453 7.00407 118.055 6.8173 117.639 6.79863C117.223 6.77995 116.807 6.91069 116.485 7.19084C116.163 7.471 115.974 7.86322 115.955 8.27411C115.917 9.13326 116.579 9.88034 117.469 9.93637C117.507 9.93637 117.526 9.93637 117.563 9.93637C117.79 9.93637 118.036 9.88034 118.245 9.78696L122.994 14.8111L123.656 14.1574L118.926 9.17061ZM117.526 9.00252C117.166 8.98384 116.901 8.68501 116.92 8.33014C116.92 8.16205 116.996 7.99396 117.128 7.8819C117.242 7.76983 117.393 7.7138 117.563 7.7138C117.582 7.7138 117.582 7.7138 117.601 7.7138C117.772 7.7138 117.942 7.78851 118.055 7.91925C118.169 8.04999 118.226 8.21808 118.226 8.38618C118.188 8.75972 117.885 9.0212 117.526 9.00252Z" fill="#31CE93"/>
<path d="M118.926 3.77278C119.058 3.54866 119.134 3.30586 119.153 3.04438C119.172 2.63348 119.039 2.22259 118.756 1.90508C118.472 1.58757 118.074 1.4008 117.658 1.38212C117.242 1.36345 116.825 1.49418 116.504 1.77434C116.182 2.0545 115.993 2.44671 115.974 2.85761C115.936 3.71675 116.598 4.46383 117.488 4.51987C117.526 4.51987 117.544 4.51987 117.582 4.51987C117.809 4.51987 118.036 4.46383 118.245 4.38913L125.643 12.2148L126.305 11.5611L118.926 3.77278ZM117.526 3.58601C117.166 3.56734 116.901 3.2685 116.92 2.91364C116.92 2.74555 116.996 2.57745 117.128 2.46539C117.242 2.35333 117.393 2.2973 117.563 2.2973C117.582 2.2973 117.582 2.2973 117.601 2.2973C117.772 2.2973 117.942 2.37201 118.055 2.50274C118.169 2.63348 118.226 2.80158 118.226 2.96967C118.188 3.34321 117.885 3.60469 117.526 3.58601Z" fill="#31CE93"/>
</svg>
