<?xml version="1.0" encoding="UTF-8"?>
<svg width="119px" height="64px" viewBox="0 0 119 64" version="1.1" xmlns="http://www.w3.org/2000/svg" xmlns:xlink="http://www.w3.org/1999/xlink">
    <!-- Generator: Sketch 60.1 (88133) - https://sketch.com -->
    <title>Logo</title>
    <desc>Created with Sketch.</desc>
    <g id="Page-1" stroke="none" stroke-width="1" fill="none" fill-rule="evenodd">
        <g id="Landing-Page---New-Copy-2" transform="translate(-148.000000, -53.000000)">
            <g id="Group-5" transform="translate(-264.000000, 0.000000)">
                <g id="Logo" transform="translate(412.000000, 55.000000)">
                    <circle id="Oval-" stroke="#020E17" stroke-width="2" opacity="0.1" cx="78" cy="25" r="26"></circle>
                    <circle id="Oval-" stroke="#020E17" stroke-width="2" opacity="0.15" cx="75" cy="29" r="15"></circle>
                    <g id="reaim" transform="translate(0.723840, 35.647360)" fill-rule="nonzero">
                        <path d="M6.12864,25.31264 L6.12864,11.49888 C6.12864,8.09408 8.36608,6.44032 11.47904,6.44032 L15.0784,6.44032 L15.0784,1.08992 L12.74368,1.08992 C9.67936,1.08992 7.63648,2.01408 6.71232,4.68928 L6.03136,4.68928 L6.03136,1.1872 L3.63797881e-12,1.1872 L3.63797881e-12,25.31264 L6.12864,25.31264 Z M29.13536,25.9936 C35.60448,25.9936 38.4256,22.5888 40.07936,20.05952 L35.06944,17.14112 C34.24256,18.84352 32.44288,20.74048 29.03808,20.74048 C25.536,20.74048 23.24992,18.25984 23.00672,14.95232 L40.56576,14.95232 L40.56576,12.66624 C40.56576,5.41888 35.84768,0.50624 28.84352,0.50624 C21.74208,0.50624 16.73216,5.75936 16.73216,13.05536 C16.73216,20.54592 21.93664,25.9936 29.13536,25.9936 Z M34.33984,10.86656 L23.05536,10.86656 C23.44448,7.80224 25.34144,5.75936 28.79488,5.75936 C31.95648,5.75936 33.99936,7.70496 34.33984,10.86656 Z" id="re" fill="#DE3139"></path>
                        <path d="M51.94752,25.9936 C57.05472,25.9936 58.75712,23.51296 59.53536,21.90784 L60.21632,21.90784 L60.21632,25.31264 L66.24768,25.31264 L66.24768,10.08832 C66.24768,4.25152 61.72416,0.50624 55.30368,0.50624 C48.8832,0.50624 45.38112,4.3488 43.48416,7.12128 L48.44544,10.13696 C49.71008,7.41312 51.65568,5.46752 55.06048,5.46752 C58.46528,5.46752 60.11904,7.41312 60.11904,9.65056 L60.11904,10.4288 L50.87744,11.45024 C46.25664,11.93664 42.90048,14.61184 42.90048,18.4544 C42.90048,23.0752 46.49984,25.9936 51.94752,25.9936 Z M53.45536,20.93504 C50.73152,20.93504 49.32096,19.76768 49.32096,18.11392 C49.32096,16.70336 50.43968,15.68192 52.72576,15.39008 L60.11904,14.51456 L60.11904,15.09824 C60.11904,18.40576 57.73568,20.93504 53.45536,20.93504 Z M77.53216,25.31264 L77.53216,1.1872 L71.40352,1.1872 L71.40352,25.31264 L77.53216,25.31264 Z M89.10848,25.31264 L89.10848,10.62336 C89.10848,7.60768 90.9568,6.14848 93.48608,6.14848 C95.8208,6.14848 97.42592,7.41312 97.42592,9.65056 L97.42592,25.31264 L103.55456,25.31264 L103.55456,10.62336 C103.55456,7.60768 105.40288,6.14848 107.93216,6.14848 C110.26688,6.14848 111.872,7.41312 111.872,9.65056 L111.872,25.31264 L118.00064,25.31264 L118.00064,9.16416 C118.00064,4.15424 114.44992,0.79808 110.02368,0.79808 C106.18112,0.79808 104.23552,2.6464 103.16544,4.88384 L102.48448,4.88384 C101.46304,2.45184 99.17696,0.79808 96.064,0.79808 C92.70784,0.79808 90.7136,2.45184 89.69216,4.78656 L89.0112,4.78656 L89.0112,1.1872 L82.97984,1.1872 L82.97984,25.31264 L89.10848,25.31264 Z" id="aim" fill="#020E17"></path>
                    </g>
                    <circle id="Oval" stroke="#F4F5F7" stroke-width="4.096" fill="#DE3139" cx="75.5" cy="28.5" r="7.548"></circle>
                    <circle id="Oval-" stroke="#020E17" stroke-width="2" cx="78.5" cy="24.5" r="3.5"></circle>
                </g>
            </g>
        </g>
    </g>
</svg>